PathFileType	4	(x/y/z)	S06_P20_T62
DataRate	CameraRate	NumFrames	NumMarkers	Units	OrigDataRate	OrigDataStartFrame	OrigNumFrames
240	240	11	51	mm	240	1	347
Frame#	Time	Sternum			R.Acromium			L.Acromium			Top.Head			R.ASIS			L.ASIS			R.PSIS			L.PSIS			R.Great.Tro			L.Great.Tro			R.Iliac.Crest			L.Iliac.Crest			V.Sacral			R.Thigh.Upper.Post			R.Thigh.Lower.Ant			R.Thigh.Lower.Post			R.Thigh.Upper.Ant			R.Knee.Lat			R.Knee.Med			R.Shank.Upper.Post			R.Shank.Lower.Ant			R.Shank.Lower.Post			R.Shank.Upper.Ant			R.Ankle.Lat			R.Ankle.Med			R.Heel.Upper			R.Heel.Med			R.Heel.Lat			R.Toe.Lat			R.Toe.Med			R.Toe.Tip			L.Thigh.Upper.Post			L.Thigh.Lower.Ant			L.Thigh.Lower.Post			L.Thigh.Upper.Ant			L.Knee.Lat			L.Knee.Med			L.Shank.Upper.Post			L.Shank.Lower.Ant			L.Shank.Lower.Post			L.Shank.Upper.Ant			L.Ankle.Lat			L.Ankle.Med			L.Heel.Upper			L.Heel.Med			L.Heel.Lat			L.Toe.Lat			L.Toe.Med			L.Toe.Tip			Cervical.Spine			Back			
		X1	Y1	Z1	X2	Y2	Z2	X3	Y3	Z3	X4	Y4	Z4	X5	Y5	Z5	X6	Y6	Z6	X7	Y7	Z7	X8	Y8	Z8	X9	Y9	Z9	X10	Y10	Z10	X11	Y11	Z11	X12	Y12	Z12	X13	Y13	Z13	X14	Y14	Z14	X15	Y15	Z15	X16	Y16	Z16	X17	Y17	Z17	X18	Y18	Z18	X19	Y19	Z19	X20	Y20	Z20	X21	Y21	Z21	X22	Y22	Z22	X23	Y23	Z23	X24	Y24	Z24	X25	Y25	Z25	X26	Y26	Z26	X27	Y27	Z27	X28	Y28	Z28	X29	Y29	Z29	X30	Y30	Z30	X31	Y31	Z31	X32	Y32	Z32	X33	Y33	Z33	X34	Y34	Z34	X35	Y35	Z35	X36	Y36	Z36	X37	Y37	Z37	X38	Y38	Z38	X39	Y39	Z39	X40	Y40	Z40	X41	Y41	Z41	X42	Y42	Z42	X43	Y43	Z43	X44	Y44	Z44	X45	Y45	Z45	X46	Y46	Z46	X47	Y47	Z47	X48	Y48	Z48	X49	Y49	Z49	X50	Y50	Z50	X51	Y51	Z51	

1	0	-1253.3	1288.3	327.22	-1366.8	1500.8	500.46	-1396	1499.8	149.04	-1384.3	1814.2	315.83	NaN	NaN	NaN	NaN	NaN	NaN	-1515.6	1082.1	357.61	-1517	1085	277.53	-1383.5	982	502.22	-1397.2	987.6	142.05	-1400.4	1132.1	484.89	-1384	1131.2	167.88	-1530.8	1050	321.14	-1423.3	735.44	479.26	-1361.5	649.75	434.8	-1453.7	653.91	457.98	-1343.2	732.31	460.32	-1439	534.36	437.52	-1436.8	545.59	309.73	-1546.7	329.12	431.34	NaN	NaN	NaN	-1576	257.16	411.87	NaN	NaN	NaN	-1599.4	128.75	382.6	-1583.3	127.56	291.23	-1669.8	92.759	334.53	-1661	57.902	306.63	-1665.5	63.535	370.74	-1488.1	41.873	416.33	-1459.8	39.744	295.45	-1389.9	48.823	341.05	-1249.9	750.48	158.13	-1186.5	689.29	224.21	-1240.4	660.98	174.6	-1205.6	781.22	206.49	-1228.6	569.04	190.42	-1210.2	576.81	311.17	-1232.3	339.54	196.12	-1156.3	291.88	191.11	-1222.4	267.95	211.19	-1169.5	361.03	181.49	-1144.8	131.32	202.38	-1134	142.92	294.06	-1206.2	67.309	251.56	-1184.1	44.289	285.19	-1182.8	42.277	224	-1016.7	102.58	181.38	NaN	NaN	NaN	-941.06	162.55	241.46	-1443	1553.8	328.97	-1503.4	1284.3	333.87
2	0.0041667	-1248.6	1287.6	327	-1362.3	1500	500.29	-1391.3	1499.1	148.84	-1379.9	1813.6	315.71	NaN	NaN	NaN	NaN	NaN	NaN	-1510.4	1081.2	357.06	-1512.1	1084.3	277.06	-1379.1	981.5	501.96	-1391.6	986.71	141.71	-1395.8	1131.4	484.61	-1379.6	1130.6	167.61	-1525.9	1049.3	320.63	-1418.3	734.86	479.06	-1356.5	649.2	434.91	-1448.4	653.17	457.98	-1338.6	731.77	460.35	-1434.9	533.89	437.78	-1432.1	544.95	309.76	-1543.8	329.44	431.38	NaN	NaN	NaN	-1574	257.97	411.82	NaN	NaN	NaN	-1598.5	129.53	382.62	-1581.9	128.11	291.56	-1669.1	94.146	334.52	-1660.6	59.383	306.52	-1665.1	64.921	370.64	-1488	41.824	416.31	-1459.6	39.714	295.44	-1389.9	48.456	341.21	-1246	749.25	158.24	-1182.3	688.02	224.04	-1237	659.73	174.95	-1201.1	780.01	206.06	-1224.9	567.86	190.72	-1206.2	575.93	311.33	-1229.2	338.32	196.63	-1153.3	290.44	191.85	-1219.4	266.7	211.77	-1166.3	359.63	182.16	-1142.2	130.01	203.25	-1131.5	141.61	294.98	-1203.7	66.772	252.2	-1182.1	43.609	285.92	-1180.6	41.694	224.67	-1014	100.77	182.69	NaN	NaN	NaN	-938.47	160.59	243.06	-1438.4	1553.1	328.78	-1498.7	1283.5	333.53
3	0.0083333	-1243.7	1286.9	326.77	-1357.6	1499.3	500.12	-1386.4	1498.5	148.63	-1375.3	1812.9	315.59	NaN	NaN	NaN	NaN	NaN	NaN	-1505.1	1080.3	356.5	-1507.1	1083.5	276.58	-1374.5	980.98	501.68	-1385.8	985.8	141.37	-1391	1130.7	484.3	-1374.9	1129.9	167.33	-1520.9	1048.5	320.11	-1413	734.26	478.88	-1351.3	648.66	434.99	-1442.8	652.38	457.99	-1333.7	731.22	460.39	-1430.5	533.38	438.07	-1427.2	544.29	309.82	-1540.8	329.8	431.45	NaN	NaN	NaN	-1571.9	258.84	411.78	NaN	NaN	NaN	-1597.5	130.39	382.67	-1580.4	128.75	291.92	-1668.3	95.66	334.53	-1660.2	60.999	306.42	-1664.8	66.432	370.56	-1487.9	41.765	416.29	-1459.4	39.69	295.42	-1389.9	48.079	341.36	-1242	747.96	158.36	-1178	686.71	223.85	-1233.4	658.44	175.31	-1196.4	778.74	205.61	-1221.1	566.63	191.02	-1202.1	575.02	311.49	-1225.9	337.06	197.14	-1150.1	288.94	192.61	-1216.4	265.42	212.35	-1163	358.18	182.85	-1139.5	128.65	204.15	-1129	140.25	295.94	-1201.2	66.255	252.84	-1180.1	42.938	286.64	-1178.4	41.137	225.32	-1011.3	98.866	184.06	NaN	NaN	NaN	-935.87	158.48	244.76	-1433.6	1552.5	328.58	-1493.8	1282.8	333.17
4	0.0125	-1238.7	1286.2	326.53	-1352.7	1498.5	499.93	-1381.4	1497.8	148.41	-1370.5	1812.3	315.47	NaN	NaN	NaN	NaN	NaN	NaN	-1499.6	1079.4	355.92	-1501.9	1082.7	276.07	-1369.7	980.45	501.38	-1379.8	984.89	141.03	-1386	1130	483.99	-1370	1129.2	167.02	-1515.7	1047.7	319.57	-1407.5	733.63	478.7	-1345.7	648.14	435.04	-1436.9	651.56	458.01	-1328.5	730.66	460.47	-1425.8	532.86	438.39	-1422.1	543.6	309.9	-1537.6	330.21	431.53	NaN	NaN	NaN	-1569.7	259.79	411.76	NaN	NaN	NaN	-1596.3	131.31	382.76	-1578.9	129.49	292.31	-1667.4	97.311	334.57	-1659.7	62.76	306.34	-1664.4	68.075	370.5	-1487.8	41.698	416.27	-1459.2	39.674	295.41	-1389.9	47.695	341.52	-1237.8	746.64	158.48	-1173.5	685.34	223.66	-1229.6	657.1	175.67	-1191.5	777.42	205.13	-1217.1	565.36	191.32	-1197.8	574.05	311.66	-1222.6	335.77	197.65	-1147	287.39	193.4	-1213.3	264.1	212.93	-1159.6	356.68	183.58	-1136.8	127.25	205.06	-1126.5	138.83	296.92	-1198.7	65.772	253.47	-1178.2	42.29	287.34	-1176.3	40.621	225.96	-1008.6	96.871	185.49	NaN	NaN	NaN	-933.27	156.2	246.55	-1428.6	1551.8	328.37	-1488.7	1282	332.8
5	0.016667	-1233.5	1285.4	326.27	-1347.8	1497.8	499.73	-1376.2	1497.1	148.18	-1365.7	1811.6	315.34	NaN	NaN	NaN	NaN	NaN	NaN	-1494	1078.5	355.33	-1496.5	1081.9	275.55	-1364.8	979.92	501.07	-1373.7	983.97	140.69	-1380.8	1129.3	483.66	-1364.9	1128.5	166.69	-1510.4	1046.9	319.01	-1401.7	732.97	478.54	-1339.8	647.65	435.06	-1430.7	650.7	458.04	-1323.2	730.1	460.57	-1420.9	532.3	438.73	-1416.7	542.88	310.02	-1534.3	330.68	431.65	NaN	NaN	NaN	-1567.3	260.8	411.77	NaN	NaN	NaN	-1595.1	132.3	382.88	-1577.3	130.35	292.75	-1666.5	99.11	334.64	-1659.2	64.678	306.28	-1663.9	69.859	370.46	-1487.7	41.623	416.26	-1459	39.668	295.4	-1389.9	47.308	341.67	-1233.5	745.28	158.59	-1168.8	683.94	223.46	-1225.8	655.75	176.03	-1186.5	776.06	204.64	-1213.1	564.07	191.63	-1193.5	573.05	311.82	-1219.2	334.47	198.14	-1143.8	285.81	194.21	-1210.2	262.77	213.5	-1156.1	355.15	184.32	-1134.1	125.84	205.98	-1124.1	137.37	297.91	-1196.2	65.337	254.07	-1176.4	41.678	288	-1174.2	40.16	226.57	-1006	94.795	186.96	NaN	NaN	NaN	-930.71	153.77	248.41	-1423.5	1551.2	328.16	-1483.5	1281.3	332.41
6	0.020833	-1228.2	1284.7	326.01	-1342.7	1497	499.52	-1370.9	1496.5	147.94	-1360.7	1810.9	315.22	NaN	NaN	NaN	NaN	NaN	NaN	-1488.4	1077.7	354.74	-1491	1081	275.01	-1359.7	979.38	500.75	-1367.4	983.06	140.36	-1375.6	1128.5	483.32	-1359.6	1127.7	166.34	-1504.9	1046	318.45	-1395.8	732.29	478.4	-1333.6	647.18	435.07	-1424.4	649.82	458.1	-1317.6	729.55	460.71	-1415.6	531.73	439.1	-1411.2	542.14	310.18	-1530.7	331.21	431.8	NaN	NaN	NaN	-1564.8	261.89	411.8	NaN	NaN	NaN	-1593.8	133.37	383.04	-1575.7	131.32	293.22	-1665.5	101.07	334.75	-1658.6	66.765	306.24	-1663.5	71.797	370.45	-1487.5	41.54	416.26	-1458.8	39.676	295.39	-1389.9	46.919	341.83	-1229.1	743.91	158.69	-1164.1	682.5	223.25	-1221.9	654.37	176.38	-1181.4	774.67	204.14	-1208.9	562.77	191.93	-1189.1	572.02	311.98	-1215.8	333.17	198.63	-1140.5	284.21	195.04	-1207.1	261.42	214.05	-1152.6	353.61	185.08	-1131.5	124.42	206.91	-1121.7	135.87	298.9	-1193.8	64.958	254.65	-1174.7	41.113	288.62	-1172.2	39.765	227.13	-1003.4	92.649	188.46	NaN	NaN	NaN	-928.21	151.18	250.34	-1418.4	1550.5	327.93	-1478.2	1280.5	332
7	0.025	-1222.9	1284	325.74	-1337.5	1496.2	499.31	-1365.6	1495.8	147.69	-1355.6	1810.3	315.09	NaN	NaN	NaN	NaN	NaN	NaN	-1482.6	1076.8	354.13	-1485.5	1080.2	274.46	-1354.5	978.84	500.4	-1361.2	982.17	140.04	-1370.3	1127.8	482.97	-1354.2	1126.9	165.97	-1499.4	1045.2	317.88	-1389.7	731.6	478.29	-1327.2	646.73	435.07	-1417.8	648.91	458.17	-1311.9	729	460.89	-1410.1	531.13	439.5	-1405.4	541.38	310.39	-1527.1	331.8	431.98	NaN	NaN	NaN	-1562.2	263.06	411.87	NaN	NaN	NaN	-1592.4	134.53	383.26	-1574.1	132.43	293.72	-1664.4	103.2	334.89	-1658	69.033	306.22	-1662.9	73.898	370.47	-1487.4	41.451	416.26	-1458.5	39.7	295.39	-1389.9	46.529	341.97	-1224.6	742.52	158.79	-1159.3	681.05	223.05	-1217.9	652.99	176.73	-1176.2	773.25	203.62	-1204.8	561.45	192.23	-1184.6	570.96	312.14	-1212.4	331.87	199.08	-1137.3	282.6	195.88	-1204	260.08	214.58	-1149.1	352.05	185.86	-1128.9	123.01	207.82	-1119.5	134.35	299.89	-1191.4	64.641	255.19	-1173.1	40.604	289.19	-1170.4	39.441	227.66	-1000.9	90.445	189.98	NaN	NaN	NaN	-925.78	148.45	252.31	-1413.1	1549.9	327.7	-1472.9	1279.7	331.57
8	0.029167	-1217.5	1283.3	325.46	-1332.3	1495.4	499.08	-1360.2	1495.2	147.42	-1350.5	1809.7	314.97	NaN	NaN	NaN	NaN	NaN	NaN	-1476.9	1075.9	353.53	-1479.8	1079.4	273.91	-1349.3	978.31	500.05	-1354.9	981.3	139.74	-1364.9	1127.1	482.61	-1348.7	1126.1	165.58	-1493.8	1044.4	317.3	-1383.4	730.89	478.21	-1320.5	646.31	435.1	-1411	647.98	458.27	-1306.1	728.47	461.12	-1404.3	530.51	439.94	-1399.4	540.6	310.64	-1523.3	332.46	432.2	NaN	NaN	NaN	-1559.4	264.32	411.98	NaN	NaN	NaN	-1590.8	135.77	383.53	-1572.4	133.67	294.26	-1663.2	105.52	335.08	-1657.2	71.498	306.24	-1662.3	76.177	370.53	-1487.2	41.358	416.27	-1458.2	39.743	295.39	-1389.9	46.138	342.12	-1220	741.13	158.87	-1154.5	679.58	222.85	-1213.8	651.61	177.06	-1170.9	771.82	203.11	-1200.5	560.14	192.52	-1180.1	569.88	312.29	-1208.9	330.58	199.51	-1134.1	281	196.72	-1200.9	258.75	215.07	-1145.5	350.5	186.64	-1126.4	121.61	208.72	-1117.3	132.81	300.87	-1189.1	64.389	255.7	-1171.7	40.157	289.71	-1168.6	39.191	228.14	-998.47	88.196	191.49	NaN	NaN	NaN	-923.44	145.58	254.31	-1407.9	1549.2	327.46	-1467.4	1278.9	331.14
9	0.033333	-1212	1282.6	325.17	-1327.1	1494.6	498.85	-1354.8	1494.5	147.15	-1345.4	1809	314.84	NaN	NaN	NaN	NaN	NaN	NaN	-1471.1	1075.1	352.92	-1474.2	1078.6	273.35	-1343.9	977.78	499.67	-1348.6	980.47	139.45	-1359.4	1126.4	482.24	-1343.1	1125.4	165.18	-1488.1	1043.6	316.71	-1377	730.18	478.16	-1313.6	645.91	435.16	-1404.1	647.03	458.39	-1300	727.96	461.39	-1398.3	529.88	440.41	-1393.1	539.8	310.96	-1519.3	333.21	432.45	NaN	NaN	NaN	-1556.5	265.66	412.14	NaN	NaN	NaN	-1589.1	137.11	383.87	-1570.6	135.05	294.83	-1661.9	108.04	335.31	-1656.4	74.174	306.28	-1661.6	78.645	370.62	-1487	41.264	416.28	-1458	39.81	295.39	-1390	45.747	342.26	-1215.4	739.75	158.94	-1149.6	678.11	222.66	-1209.7	650.24	177.37	-1165.6	770.37	202.59	-1196.3	558.85	192.8	-1175.7	568.78	312.44	-1205.5	329.32	199.91	-1130.8	279.41	197.57	-1197.9	257.45	215.52	-1141.9	348.97	187.43	-1124	120.24	209.61	-1115.2	131.27	301.82	-1186.9	64.204	256.16	-1170.4	39.777	290.17	-1167	39.018	228.57	-996.18	85.914	192.99	NaN	NaN	NaN	-921.2	142.58	256.3	-1402.5	1548.6	327.2	-1461.9	1278.2	330.69
10	0.0375	-1206.5	1282	324.88	-1321.8	1493.9	498.6	-1349.3	1493.9	146.87	-1340.2	1808.4	314.72	NaN	NaN	NaN	NaN	NaN	NaN	-1465.4	1074.4	352.32	-1468.4	1077.8	272.78	-1338.5	977.27	499.29	-1342.3	979.67	139.18	-1354	1125.8	481.87	-1337.3	1124.6	164.75	-1482.4	1042.9	316.13	-1370.5	729.45	478.16	-1306.6	645.51	435.29	-1396.9	646.07	458.55	-1293.9	727.48	461.72	-1391.9	529.22	440.92	-1386.7	538.97	311.34	-1515.2	334.03	432.76	NaN	NaN	NaN	-1553.4	267.1	412.34	NaN	NaN	NaN	-1587.3	138.56	384.26	-1568.7	136.57	295.44	-1660.4	110.77	335.6	-1655.4	77.075	306.37	-1660.8	81.316	370.75	-1486.8	41.173	416.31	-1457.7	39.904	295.41	-1390.1	45.354	342.39	-1210.8	738.38	159	-1144.7	676.64	222.48	-1205.6	648.9	177.66	-1160.3	768.92	202.08	-1192	557.57	193.06	-1171.3	567.68	312.59	-1202.1	328.09	200.27	-1127.6	277.84	198.41	-1194.8	256.17	215.93	-1138.3	347.46	188.21	-1121.6	118.91	210.46	-1113.2	129.74	302.75	-1184.7	64.085	256.59	-1169.2	39.469	290.57	-1165.5	38.919	228.94	-994.01	83.612	194.45	NaN	NaN	NaN	-919.03	139.47	258.27	-1397.2	1548	326.94	-1456.4	1277.4	330.23
11	0.041667	-1201	1281.4	324.59	-1316.5	1493.2	498.35	-1343.8	1493.3	146.58	-1335	1807.9	314.59	NaN	NaN	NaN	NaN	NaN	NaN	-1459.6	1073.6	351.72	-1462.7	1077	272.21	-1333	976.77	498.89	-1336.1	978.91	138.93	-1348.5	1125.2	481.48	-1331.5	1123.8	164.31	-1476.7	1042.1	315.54	-1363.8	728.72	478.19	-1299.5	645.11	435.54	-1389.6	645.09	458.75	-1287.5	727.03	462.09	-1385.3	528.56	441.47	-1380	538.12	311.78	-1510.9	334.94	433.1	NaN	NaN	NaN	-1550.1	268.64	412.59	NaN	NaN	NaN	-1585.4	140.13	384.72	-1566.7	138.22	296.08	-1658.8	113.74	335.93	-1654.3	80.216	306.5	-1659.8	84.202	370.93	-1486.6	41.091	416.33	-1457.4	40.03	295.43	-1390.1	44.957	342.52	-1206.1	737.04	159.05	-1139.9	675.18	222.31	-1201.4	647.58	177.93	-1155	767.48	201.59	-1187.8	556.32	193.32	-1166.9	566.58	312.74	-1198.6	326.9	200.59	-1124.4	276.32	199.23	-1191.8	254.94	216.29	-1134.8	345.99	188.99	-1119.3	117.63	211.28	-1111.3	128.22	303.64	-1182.7	64.031	256.99	-1168.1	39.234	290.91	-1164.2	38.893	229.27	-991.96	81.304	195.86	NaN	NaN	NaN	-916.95	136.26	260.18	-1391.8	1547.4	326.67	-1450.9	1276.7	329.75
